<svg width="74" height="74" viewBox="0 0 74 74" fill="none" xmlns="http://www.w3.org/2000/svg">
<path fill-rule="evenodd" clip-rule="evenodd" d="M37 0C57.4209 0 74 16.5791 74 37C74 57.4209 57.4209 74 37 74C16.5791 74 0 57.4209 0 37C0 16.5791 16.5791 0 37 0ZM37 3.08333C55.7189 3.08333 70.9167 18.2811 70.9167 37C70.9167 55.7189 55.7189 70.9167 37 70.9167C18.2811 70.9167 3.08333 55.7189 3.08333 37C3.08333 18.2811 18.2811 3.08333 37 3.08333ZM22.1137 38.5417L36.3217 50.1442L34.2281 52.4167L15.4167 37L34.262 21.5833L36.3155 23.9051L22.1198 35.4583H58.5833V38.5417H22.1137Z" fill="black"/>
</svg>
