<svg width="52" height="62" viewBox="0 0 52 62" fill="none" xmlns="http://www.w3.org/2000/svg">
<path d="M33.5686 25.8333C32.7678 34.4229 29.9364 40.5893 25.9038 46.5H13.0962C9.5264 41.3101 6.3024 35.2057 5.4314 25.8333H33.5686ZM39 20.6667H0C0 35.433 4.7476 43.9063 10.4 51.6667H28.6C34.112 44.1466 39 35.3064 39 20.6667ZM41.9094 25.8333C41.7612 27.6442 41.5428 29.3647 41.2542 31H45.2816C44.1142 34.3325 41.3816 37.4015 39.3042 38.5278C38.3734 41.2093 37.258 43.6454 36.0282 45.8955C44.5432 42.9427 51.2304 34.2472 52 25.8333H41.9094ZM39 56.8333H0V62H39V56.8333ZM5.0388 15.5C3.0966 10.1783 8.5696 5.98558 12.8336 8.63092C15.4492 2.51617 24.3958 3.12583 26.1378 9.54283C29.9338 6.39892 35.8488 9.99233 34.1432 15.5H38.805C40.1258 8.90992 34.5228 3.39192 28.2074 4.40975C26.3926 1.488 22.8228 0 19.2764 0C16.0186 0 12.7816 1.2555 10.946 3.80525C4.4252 2.95533 -1.1804 8.75233 0.3094 15.5H5.0388Z" fill="#FAF1F1"/>
</svg>
