<svg width="60" height="60" viewBox="0 0 60 60" fill="none" xmlns="http://www.w3.org/2000/svg">
<path d="M30 5C43.785 5 55 16.215 55 30C55 43.785 43.785 55 30 55C16.215 55 5 43.785 5 30C5 16.215 16.215 5 30 5ZM30 0C13.4325 0 0 13.4325 0 30C0 46.5675 13.4325 60 30 60C46.5675 60 60 46.5675 60 30C60 13.4325 46.5675 0 30 0ZM45 35H15C15.8275 38.6625 22.0675 45 30.0025 45C37.8375 45 44.1675 38.6975 45 35ZM45 25.005L43.1125 26.27C43.1125 26.27 41.855 23.9 38.7475 23.9C35.73 23.9 34.385 26.27 34.385 26.27L32.5 25.005C33.2025 23.135 35.5125 20 38.7475 20C41.985 20 44.2925 23.135 45 25.005ZM27.5 25.005L25.6125 26.27C25.6125 26.27 24.355 23.9 21.2475 23.9C18.23 23.9 16.885 26.27 16.885 26.27L15 25.005C15.7025 23.135 18.0125 20 21.2475 20C24.485 20 26.7925 23.135 27.5 25.005Z" fill="#FAF1F1"/>
</svg>
