<svg width="44" height="67" viewBox="0 0 44 67" fill="none" xmlns="http://www.w3.org/2000/svg">
<path d="M22 5.58333C30.789 5.58333 38.5 12.8919 38.5 21.2223C38.5 29.8569 31.6442 41.1324 22 56.5675C12.3558 41.1324 5.5 29.8569 5.5 21.2223C5.5 12.8919 13.211 5.58333 22 5.58333ZM22 0C10.4555 0 0 9.50004 0 21.2223C0 32.9417 9.53975 46.9335 22 67C34.4603 46.9335 44 32.9417 44 21.2223C44 9.50004 33.5472 0 22 0ZM22 36.2917C17.4433 36.2917 13.75 32.5425 13.75 27.9167C13.75 23.2909 17.4433 19.5417 22 19.5417C26.5567 19.5417 30.25 23.2909 30.25 27.9167C30.25 32.5425 26.5567 36.2917 22 36.2917Z" fill="#279F8E"/>
</svg>
