<svg width="51" height="51" viewBox="0 0 51 51" fill="none" xmlns="http://www.w3.org/2000/svg">
<path d="M21.3371 36.125L11.7746 26.9471L14.739 23.8978L21.284 30.1389L36.2036 14.875L39.2254 17.8691L21.3371 36.125ZM10.625 4.25C7.11025 4.25 4.25 7.11025 4.25 10.625V40.375C4.25 43.8898 7.11025 46.75 10.625 46.75H40.375C43.8898 46.75 46.75 43.8898 46.75 40.375V10.625C46.75 7.11025 43.8898 4.25 40.375 4.25H10.625ZM51 10.625V40.375C51 46.2421 46.2443 51 40.375 51H10.625C4.75575 51 0 46.2421 0 40.375V10.625C0 4.75787 4.75575 0 10.625 0H40.375C46.2443 0 51 4.75787 51 10.625Z" fill="#FAF1F1"/>
</svg>
