<svg width="50" height="50" viewBox="0 0 50 50" fill="none" xmlns="http://www.w3.org/2000/svg">
<path d="M35.6371 38.889H50V44.4443H35.6371C34.4932 47.681 31.4064 50 27.7777 50C24.1496 50 21.0629 47.681 19.9188 44.4443H0.000119888V38.889H19.9188C21.0628 35.6524 24.1496 33.3333 27.7777 33.3333C31.4063 33.3333 34.4931 35.6524 35.6371 38.889ZM21.7481 22.2224H50V27.7776H21.7481C20.6041 31.0143 17.5173 33.3333 13.8892 33.3333C10.2607 33.3333 7.17381 31.0143 6.02978 27.7776H0.000357849V22.2224H6.02978C7.17374 18.9857 10.2605 16.6667 13.8892 16.6667C17.5173 16.6667 20.6041 18.9857 21.7481 22.2224ZM28.2519 5.55571C29.3959 2.31905 32.4827 0 36.1108 0C39.7393 0 42.8262 2.31905 43.9702 5.55571H49.9996V11.111H43.9702C42.8263 14.3476 39.7395 16.6667 36.1108 16.6667C32.4827 16.6667 29.3959 14.3476 28.2519 11.111H0V5.55571H28.2519ZM36.1108 11.111C37.645 11.111 38.8889 9.8675 38.8889 8.33333C38.8889 6.79917 37.645 5.55571 36.1108 5.55571C34.5767 5.55571 33.3333 6.79917 33.3333 8.33333C33.3333 9.8675 34.5767 11.111 36.1108 11.111ZM13.8898 27.7776C15.4239 27.7776 16.6673 26.5342 16.6673 25C16.6673 23.4658 15.4239 22.2224 13.8898 22.2224C12.3556 22.2224 11.1117 23.4658 11.1117 25C11.1117 26.5342 12.3556 27.7776 13.8898 27.7776ZM27.7776 44.4443C29.3118 44.4443 30.5557 43.2008 30.5557 41.6667C30.5557 40.1325 29.3118 38.889 27.7776 38.889C26.2435 38.889 25.0001 40.1325 25.0001 41.6667C25.0001 43.2008 26.2435 44.4443 27.7776 44.4443Z" fill="#FAF1F1"/>
</svg>
